<svg width="319" height="210" viewBox="0 0 319 210" fill="none" xmlns="http://www.w3.org/2000/svg">
<g filter="url(#filter0_d_67_182)">
<rect width="60.663" height="99.7108" rx="5.88648" transform="matrix(0.999782 -0.0217143 0.0285206 0.999587 122.682 26.0094)" fill="#EF476F"/>
</g>
<path d="M132.148 34.2977L128.588 34.6856L129.642 41.5692L133.202 41.1813L132.148 34.2977ZM173.428 117.071C175.397 117.398 177.213 116.134 177.484 114.25C177.755 112.365 176.379 110.572 174.41 110.245L173.428 117.071ZM133.202 41.1813C136.136 40.8617 138.19 41.4952 139.803 42.6365C141.521 43.8521 143.071 45.8843 144.446 48.8706C147.242 54.9408 148.728 63.5719 150.249 73.1082C151.727 82.3688 153.231 92.4209 156.252 100.421C159.265 108.401 164.262 115.551 173.428 117.071L174.41 110.245C169.289 109.396 165.729 105.464 163.008 98.2566C160.293 91.0678 158.885 81.8251 157.364 72.2906C155.887 63.0319 154.29 53.368 151.011 46.2495C149.349 42.6414 147.114 39.3557 143.935 37.106C140.651 34.7818 136.697 33.8022 132.148 34.2977L133.202 41.1813Z" fill="#F49CB1"/>
<g filter="url(#filter1_d_67_182)">
<g filter="url(#filter2_d_67_182)">
<rect width="58.8359" height="102.198" rx="5.88648" transform="matrix(0.902201 -0.432271 0.487978 0.872933 50.1241 55.8374)" fill="#06D6A0"/>
</g>
<path d="M62.4837 59.8986L59.4288 61.6969L63.44 67.4876L66.495 65.6892L62.4837 59.8986ZM138.238 117.759C140.172 117.268 141.273 115.396 140.697 113.579C140.121 111.762 138.086 110.687 136.152 111.179L138.238 117.759ZM66.495 65.6892C68.8901 64.2792 70.9882 64.0252 72.9875 64.4165C75.1222 64.8343 77.4956 66.0615 80.1559 68.2068C85.5504 72.5568 90.9933 79.7159 96.8778 87.6403C102.602 95.349 108.711 103.731 115.18 109.682C121.606 115.593 129.383 120.01 138.238 117.759L136.152 111.179C131.219 112.433 126.135 110.306 120.246 104.888C114.399 99.5098 108.736 91.7789 102.853 83.8552C97.1288 76.1472 91.1263 68.1546 84.8561 63.0983C81.6842 60.5405 78.1704 58.5009 74.3155 57.7465C70.3251 56.9655 66.331 57.6337 62.4837 59.8986L66.495 65.6892Z" fill="#9DD3C5"/>
</g>
<g filter="url(#filter3_d_67_182)">
<g filter="url(#filter4_d_67_182)">
<rect width="58.9338" height="101.885" rx="5.88648" transform="matrix(0.926091 0.377607 -0.433152 0.901844 202.877 31.4463)" fill="#FFD166"/>
</g>
<path d="M207.659 42.8237L204.286 41.733L201.801 48.3177L205.174 49.4083L207.659 42.8237ZM205.262 133.805C206.842 134.913 209.097 134.546 210.299 132.984C211.501 131.422 211.195 129.257 209.615 128.148L205.262 133.805ZM205.174 49.4083C207.654 50.2105 209.073 51.523 209.932 53.2065C210.852 55.0087 211.257 57.5007 211.089 60.7782C210.749 67.4148 208.172 75.8653 205.242 85.1036C202.391 94.0971 199.226 103.782 198.229 112.182C197.242 120.499 198.226 128.867 205.262 133.805L209.615 128.148C205.745 125.432 204.458 120.436 205.371 112.746C206.274 105.136 209.182 96.1687 212.111 86.9308C214.962 77.9376 217.875 68.578 218.269 60.8922C218.468 57.0085 218.051 53.2112 216.403 49.9793C214.693 46.6286 211.798 44.1621 207.659 42.8237L205.174 49.4083Z" fill="#FFE7B0"/>
</g>
<g filter="url(#filter5_d_67_182)">
<path d="M44.8519 180.168C41.5783 180.168 38.718 179.424 36.271 177.936C33.8241 176.448 31.9228 174.381 30.567 171.736C29.2113 169.057 28.5334 165.949 28.5334 162.411C28.5334 158.84 29.2278 155.698 30.6166 152.987C32.0385 150.242 34.039 148.11 36.6182 146.589C39.2305 145.034 42.3223 144.257 45.8935 144.257C49.9607 144.257 53.3335 145.233 56.0119 147.184C58.6903 149.135 60.4263 151.83 61.2199 155.269H54.1271C53.598 153.648 52.6391 152.392 51.2503 151.499C49.8615 150.573 48.0759 150.11 45.8935 150.11C42.4215 150.11 39.7431 151.218 37.8582 153.433C35.9734 155.616 35.031 158.625 35.031 162.461C35.031 166.296 35.9569 169.272 37.8086 171.389C39.6935 173.472 42.2396 174.513 45.4471 174.513C48.5884 174.513 50.9527 173.67 52.5399 171.984C54.1602 170.264 55.1356 168.016 55.4663 165.238H46.6871V160.477H61.8647V179.573H56.0119L55.5159 175.009C54.3916 176.663 52.9863 177.936 51.2999 178.829C49.6135 179.721 47.4641 180.168 44.8519 180.168ZM65.16 179.573V154.971H70.8144L71.4096 159.584C72.3024 157.997 73.5094 156.74 75.0304 155.814C76.5846 154.855 78.4032 154.376 80.4864 154.376V161.072H78.7008C77.312 161.072 76.072 161.287 74.9808 161.717C73.8896 162.146 73.0299 162.89 72.4016 163.949C71.8064 165.007 71.5088 166.478 71.5088 168.363V179.573H65.16ZM90.5793 180.168C88.463 180.168 86.727 179.837 85.3713 179.176C84.0155 178.481 83.007 177.572 82.3457 176.448C81.6843 175.324 81.3537 174.084 81.3537 172.728C81.3537 170.446 82.2465 168.594 84.0321 167.173C85.8177 165.751 88.4961 165.04 92.0673 165.04H98.3169V164.445C98.3169 162.758 97.8374 161.518 96.8785 160.725C95.9196 159.931 94.7292 159.534 93.3073 159.534C92.0177 159.534 90.8934 159.848 89.9345 160.477C88.9756 161.072 88.3803 161.965 88.1489 163.155H81.9489C82.1142 161.369 82.7094 159.815 83.7345 158.493C84.7926 157.17 86.1483 156.161 87.8017 155.467C89.455 154.74 91.3068 154.376 93.3569 154.376C96.862 154.376 99.623 155.252 101.64 157.005C103.657 158.757 104.666 161.237 104.666 164.445V179.573H99.2593L98.6641 175.605C97.9366 176.927 96.9116 178.018 95.5889 178.878C94.2993 179.738 92.6294 180.168 90.5793 180.168ZM92.0177 175.208C93.8364 175.208 95.2417 174.613 96.2337 173.422C97.2588 172.232 97.9036 170.76 98.1681 169.008H92.7617C91.0753 169.008 89.8684 169.322 89.1409 169.95C88.4134 170.545 88.0497 171.289 88.0497 172.182C88.0497 173.141 88.4134 173.885 89.1409 174.414C89.8684 174.943 90.8273 175.208 92.0177 175.208ZM107.996 179.573V154.971H113.601L114.097 159.137C114.858 157.682 115.949 156.525 117.371 155.665C118.826 154.806 120.529 154.376 122.48 154.376C125.522 154.376 127.886 155.335 129.572 157.253C131.259 159.17 132.102 161.981 132.102 165.685V179.573H125.753V166.28C125.753 164.164 125.323 162.543 124.464 161.419C123.604 160.295 122.265 159.733 120.446 159.733C118.66 159.733 117.189 160.361 116.032 161.617C114.907 162.874 114.345 164.626 114.345 166.875V179.573H107.996ZM156.489 180.168C154.009 180.168 151.81 179.639 149.892 178.581C147.975 177.522 146.47 176.034 145.379 174.117C144.288 172.199 143.742 169.983 143.742 167.47C143.742 164.924 144.271 162.659 145.329 160.675C146.42 158.691 147.908 157.153 149.793 156.062C151.711 154.938 153.96 154.376 156.539 154.376C158.953 154.376 161.086 154.905 162.937 155.963C164.789 157.021 166.227 158.476 167.253 160.328C168.311 162.146 168.84 164.18 168.84 166.429C168.84 166.792 168.823 167.173 168.79 167.569C168.79 167.966 168.774 168.38 168.741 168.809H150.041C150.174 170.727 150.835 172.232 152.025 173.323C153.249 174.414 154.72 174.96 156.44 174.96C157.729 174.96 158.804 174.679 159.664 174.117C160.557 173.521 161.218 172.761 161.648 171.835H168.096C167.633 173.389 166.856 174.811 165.765 176.101C164.706 177.357 163.384 178.349 161.797 179.077C160.242 179.804 158.473 180.168 156.489 180.168ZM156.539 159.534C154.985 159.534 153.613 159.981 152.422 160.873C151.232 161.733 150.471 163.056 150.14 164.841H162.392C162.293 163.221 161.697 161.932 160.606 160.973C159.515 160.014 158.159 159.534 156.539 159.534ZM177.129 179.573L168.102 154.971H174.748L180.998 173.571L187.248 154.971H193.894L184.817 179.573H177.129ZM205.913 180.168C203.433 180.168 201.234 179.639 199.316 178.581C197.398 177.522 195.894 176.034 194.803 174.117C193.711 172.199 193.166 169.983 193.166 167.47C193.166 164.924 193.695 162.659 194.753 160.675C195.844 158.691 197.332 157.153 199.217 156.062C201.135 154.938 203.384 154.376 205.963 154.376C208.377 154.376 210.509 154.905 212.361 155.963C214.213 157.021 215.651 158.476 216.676 160.328C217.734 162.146 218.264 164.18 218.264 166.429C218.264 166.792 218.247 167.173 218.214 167.569C218.214 167.966 218.197 168.38 218.164 168.809H199.465C199.597 170.727 200.259 172.232 201.449 173.323C202.673 174.414 204.144 174.96 205.864 174.96C207.153 174.96 208.228 174.679 209.088 174.117C209.98 173.521 210.642 172.761 211.072 171.835H217.52C217.057 173.389 216.28 174.811 215.188 176.101C214.13 177.357 212.808 178.349 211.22 179.077C209.666 179.804 207.897 180.168 205.913 180.168ZM205.963 159.534C204.409 159.534 203.036 159.981 201.846 160.873C200.655 161.733 199.895 163.056 199.564 164.841H211.816C211.716 163.221 211.121 161.932 210.03 160.973C208.939 160.014 207.583 159.534 205.963 159.534ZM220.875 179.573V154.971H226.48L226.976 159.137C227.737 157.682 228.828 156.525 230.25 155.665C231.705 154.806 233.408 154.376 235.359 154.376C238.401 154.376 240.765 155.335 242.451 157.253C244.138 159.17 244.981 161.981 244.981 165.685V179.573H238.632V166.28C238.632 164.164 238.202 162.543 237.343 161.419C236.483 160.295 235.144 159.733 233.325 159.733C231.539 159.733 230.068 160.361 228.911 161.617C227.786 162.874 227.224 164.626 227.224 166.875V179.573H220.875ZM259.286 179.573C256.706 179.573 254.64 178.944 253.086 177.688C251.531 176.431 250.754 174.199 250.754 170.992V160.278H246.538V154.971H250.754L251.498 148.374H257.103V154.971H263.75V160.278H257.103V171.041C257.103 172.232 257.351 173.058 257.847 173.521C258.376 173.951 259.269 174.166 260.526 174.166H263.601V179.573H259.286ZM277.648 180.168C275.267 180.168 273.118 179.622 271.2 178.531C269.315 177.44 267.81 175.935 266.686 174.017C265.595 172.066 265.049 169.818 265.049 167.272C265.049 164.726 265.611 162.494 266.736 160.576C267.86 158.625 269.364 157.104 271.249 156.013C273.167 154.921 275.316 154.376 277.697 154.376C280.045 154.376 282.161 154.921 284.046 156.013C285.964 157.104 287.468 158.625 288.56 160.576C289.684 162.494 290.246 164.726 290.246 167.272C290.246 169.818 289.684 172.066 288.56 174.017C287.468 175.935 285.964 177.44 284.046 178.531C282.128 179.622 279.995 180.168 277.648 180.168ZM277.648 174.662C279.301 174.662 280.739 174.05 281.963 172.827C283.186 171.57 283.798 169.719 283.798 167.272C283.798 164.825 283.186 162.99 281.963 161.766C280.739 160.51 279.318 159.881 277.697 159.881C276.011 159.881 274.556 160.51 273.332 161.766C272.142 162.99 271.547 164.825 271.547 167.272C271.547 169.719 272.142 171.57 273.332 172.827C274.556 174.05 275.994 174.662 277.648 174.662Z" fill="white"/>
</g>
<defs>
<filter id="filter0_d_67_182" x="98.6237" y="0.595295" width="111.609" height="149.181" filterUnits="userSpaceOnUse" color-interpolation-filters="sRGB">
<feFlood flood-opacity="0" result="BackgroundImageFix"/>
<feColorMatrix in="SourceAlpha" type="matrix" values="0 0 0 0 0 0 0 0 0 0 0 0 0 0 0 0 0 0 127 0" result="hardAlpha"/>
<feMorphology radius="4.84466" operator="dilate" in="SourceAlpha" result="effect1_dropShadow_67_182"/>
<feOffset/>
<feGaussianBlur stdDeviation="9.68932"/>
<feComposite in2="hardAlpha" operator="out"/>
<feColorMatrix type="matrix" values="0 0 0 0 0.937255 0 0 0 0 0.278431 0 0 0 0 0.435294 0 0 0 0.25 0"/>
<feBlend mode="normal" in2="BackgroundImageFix" result="effect1_dropShadow_67_182"/>
<feBlend mode="normal" in="SourceGraphic" in2="effect1_dropShadow_67_182" result="shape"/>
</filter>
<filter id="filter1_d_67_182" x="51.3266" y="32.3522" width="100.547" height="112.633" filterUnits="userSpaceOnUse" color-interpolation-filters="sRGB">
<feFlood flood-opacity="0" result="BackgroundImageFix"/>
<feColorMatrix in="SourceAlpha" type="matrix" values="0 0 0 0 0 0 0 0 0 0 0 0 0 0 0 0 0 0 127 0" result="hardAlpha"/>
<feOffset dy="0.941836"/>
<feGaussianBlur stdDeviation="0.470918"/>
<feComposite in2="hardAlpha" operator="out"/>
<feColorMatrix type="matrix" values="0 0 0 0 0.0235294 0 0 0 0 0.839216 0 0 0 0 0.627451 0 0 0 0.25 0"/>
<feBlend mode="normal" in2="BackgroundImageFix" result="effect1_dropShadow_67_182"/>
<feBlend mode="normal" in="SourceGraphic" in2="effect1_dropShadow_67_182" result="shape"/>
</filter>
<filter id="filter2_d_67_182" x="28.0451" y="8.12886" width="147.11" height="159.196" filterUnits="userSpaceOnUse" color-interpolation-filters="sRGB">
<feFlood flood-opacity="0" result="BackgroundImageFix"/>
<feColorMatrix in="SourceAlpha" type="matrix" values="0 0 0 0 0 0 0 0 0 0 0 0 0 0 0 0 0 0 127 0" result="hardAlpha"/>
<feMorphology radius="4.84466" operator="dilate" in="SourceAlpha" result="effect1_dropShadow_67_182"/>
<feOffset/>
<feGaussianBlur stdDeviation="9.68932"/>
<feComposite in2="hardAlpha" operator="out"/>
<feColorMatrix type="matrix" values="0 0 0 0 0.0235294 0 0 0 0 0.839216 0 0 0 0 0.627451 0 0 0 0.25 0"/>
<feBlend mode="normal" in2="BackgroundImageFix" result="effect1_dropShadow_67_182"/>
<feBlend mode="normal" in="SourceGraphic" in2="effect1_dropShadow_67_182" result="shape"/>
</filter>
<filter id="filter3_d_67_182" x="159.785" y="33.2209" width="96.6305" height="112.473" filterUnits="userSpaceOnUse" color-interpolation-filters="sRGB">
<feFlood flood-opacity="0" result="BackgroundImageFix"/>
<feColorMatrix in="SourceAlpha" type="matrix" values="0 0 0 0 0 0 0 0 0 0 0 0 0 0 0 0 0 0 127 0" result="hardAlpha"/>
<feOffset dy="0.941836"/>
<feGaussianBlur stdDeviation="0.470918"/>
<feComposite in2="hardAlpha" operator="out"/>
<feColorMatrix type="matrix" values="0 0 0 0 0 0 0 0 0 0 0 0 0 0 0 0 0 0 0.25 0"/>
<feBlend mode="normal" in2="BackgroundImageFix" result="effect1_dropShadow_67_182"/>
<feBlend mode="normal" in="SourceGraphic" in2="effect1_dropShadow_67_182" result="shape"/>
</filter>
<filter id="filter4_d_67_182" x="136.503" y="8.99764" width="143.193" height="159.036" filterUnits="userSpaceOnUse" color-interpolation-filters="sRGB">
<feFlood flood-opacity="0" result="BackgroundImageFix"/>
<feColorMatrix in="SourceAlpha" type="matrix" values="0 0 0 0 0 0 0 0 0 0 0 0 0 0 0 0 0 0 127 0" result="hardAlpha"/>
<feMorphology radius="4.84466" operator="dilate" in="SourceAlpha" result="effect1_dropShadow_67_182"/>
<feOffset/>
<feGaussianBlur stdDeviation="9.68932"/>
<feComposite in2="hardAlpha" operator="out"/>
<feColorMatrix type="matrix" values="0 0 0 0 1 0 0 0 0 0.819608 0 0 0 0 0.4 0 0 0 0.25 0"/>
<feBlend mode="normal" in2="BackgroundImageFix" result="effect1_dropShadow_67_182"/>
<feBlend mode="normal" in="SourceGraphic" in2="effect1_dropShadow_67_182" result="shape"/>
</filter>
<filter id="filter5_d_67_182" x="0.757387" y="118.465" width="317.265" height="91.4626" filterUnits="userSpaceOnUse" color-interpolation-filters="sRGB">
<feFlood flood-opacity="0" result="BackgroundImageFix"/>
<feColorMatrix in="SourceAlpha" type="matrix" values="0 0 0 0 0 0 0 0 0 0 0 0 0 0 0 0 0 0 127 0" result="hardAlpha"/>
<feOffset dy="1.984"/>
<feGaussianBlur stdDeviation="13.888"/>
<feComposite in2="hardAlpha" operator="out"/>
<feColorMatrix type="matrix" values="0 0 0 0 1 0 0 0 0 1 0 0 0 0 1 0 0 0 0.59 0"/>
<feBlend mode="normal" in2="BackgroundImageFix" result="effect1_dropShadow_67_182"/>
<feBlend mode="normal" in="SourceGraphic" in2="effect1_dropShadow_67_182" result="shape"/>
</filter>
</defs>
</svg>
